<svg id="Layer_1" data-name="Layer 1" xmlns="http://www.w3.org/2000/svg" viewBox="0 0 1000 1789"><defs><style>.cls-1,.cls-2{fill:none;stroke:#ccc;stroke-miterlimit:10;opacity:0.5;}.cls-1{stroke-width:0.5px;}.cls-2{stroke-width:1.5px;}</style></defs><path class="cls-1" d="M14.87,1722.6c9.67,28.58,38.57,56.36,59,50,12.89-4,22.8-21.76,19-32-2.63-7.07-10.05-5.9-17-15-8-10.49-3.37-18.85-8-30-7.72-18.56-35.85-32.12-49-24C5.89,1679.6,9.7,1707.32,14.87,1722.6Z"/><path class="cls-2" d="M18.87,1761.6c6.07,5.6,20.1,18.55,41,19,3.77.08,32.22.26,42-20,7.17-14.87.73-33.36-8-43-5.35-5.91-8.37-5-12-11-6.92-11.48.59-20.51-5-31-4.89-9.17-15.85-12.1-23-14-19.44-5.18-36.09,3.07-42,6-7.23,3.58-12.12,6-16,11C-19.25,1698.05-5.53,1739.07,18.87,1761.6Z"/><path class="cls-1" d="M-16.63,1716.1c2.1,8.08,6.1,22.81,18,38,17.55,22.41,40.24,30.42,49,33,24.44,7.19,62.89,8,72-9,5-9.38-.6-21,9-31,5.42-5.65,10.42-5.27,11-9,1.16-7.46-18.56-10.42-33-28-8.42-10.25-11.41-21-15-34-7.26-26.18-1.3-34.24-9-41-9.68-8.5-21.12,2.47-51-1-23.53-2.73-26.74-10.73-36-7C-22.33,1635.42-25.26,1683-16.63,1716.1Z"/><path class="cls-2" d="M-19.63,1751.1c8,11.39,17.37,22.66,32,32,9.23,5.89,15.88,8,34,14,64.45,21.26,73.69,25.13,84,19,3.2-1.91,9.13-8.94,21-23,13.58-16.1,12.19-16.79,17-21,20.3-17.78,45.79-6.13,51-17,4.52-9.45-9.56-29-27-39-22.69-13-35.07-.51-55-12-20.82-12-32.55-40.14-31-63,1.51-22.29,15.26-34,10-40-5.81-6.64-22.5,7.66-51,10-34.14,2.8-42.24-15.09-68-11s-51.27,27.5-58,54C-67.93,1682.8-51.16,1706.51-19.63,1751.1Z"/><path class="cls-2" d="M-15.63,1787.1c1.56-1.35,5.18.12,34,20,62.78,43.31,64.25,49.22,79,52,33.64,6.33,69-16.36,87-35,22.31-23.11,16.2-38.19,38-52,29.32-18.59,65.87-7.47,74-5,13,4,41.32,12.57,47,33,7.06,25.41-25.23,53.69-37,64-55.16,48.3-165.3,84.47-247,31C4.69,1859.32-22.52,1793-15.63,1787.1Z"/><path class="cls-1" d="M216.37,1811.1c-4.74-10.32,10-30.88,28-38,9.82-3.89,18.68-2.65,36,0,16.72,2.55,48.24,7.37,49,17,.88,11.24-40.75,22.16-44,23C266.46,1818,223,1825.48,216.37,1811.1Z"/><path class="cls-1" d="M231.37,1800.1c-.87-5.66,16.2-14.91,33-16,13.81-.9,30.64,3.5,31,9,.41,6.31-20.84,14.4-40,14C247.66,1806.94,232.16,1805.24,231.37,1800.1Z"/><path class="cls-1" d="M-24.63,1588.1c17.57-4.25,37.56-9.09,57,0,10.84,5.07,14.71,11.3,27,14,14.6,3.21,26-1.89,40-7,42.67-15.61,64-23.42,75-16,18.35,12.38-6,52.56,19,80,10.29,11.3,28,19.34,36,23,18.14,8.26,27.83,8.2,36,19,7,9.31,7.68,19.71,13,20,5.11.27,6.85-9.23,13-10,7.62-1,11.33,12.82,20,20,18.48,15.29,46.93-9.89,101-11,8.64-.18,50.85-1,58,17,4.05,10.23-4.55,23.07,0,26,3.83,2.47,9.88-6.73,22-9,14.52-2.73,17.59,8.27,32,8,22.4-.42,34.19-27.35,50-22,4.81,1.63,7.45,5.39,11,4,4-1.56,5.21-8.06,7-18,2-11.45.91-14,3-16,6.84-6.46,31.74,9.53,34,11,20.84,13.57,87.72,65.32,82,112-5.56,45.31-77.66,70.61-178,99-287.3,81.28-430.95,121.92-511,75-135.53-79.44-194.61-285.23-140-359C-103.88,1629.52-67.49,1598.46-24.63,1588.1Z"/><path class="cls-2" d="M257.37,1729.1c-16.1-14.13-20.12-21.65-28-29-23.16-21.59-46.1-18-50-34-1.73-7.07-7.44-30.18-11-33-4.17-3.3,2.89,39.49,4,45,2,10,14.93-5.78,36,24,13.11,18.54,8.12,28.26,23,40,15,11.86,32.86,12,39,12,7.71,0,16,0,22-6s7.85-15.84,5-18c-3.59-2.72-11.68,9.1-24,8C267.75,1737.6,263.67,1734.63,257.37,1729.1Z"/><path class="cls-1" d="M60.37,1704.1c0-6,1.34-8.54-.5-13.5-2.63-7.08-23.84-22.61-35.5-15.5-6.48,3.94-4,18-8,21-3.48,2.61-3.36,13.58,2.5,18.5,6.75,5.67,17.72-2,23,4,3.27,3.74.06,7.49,3,13,5.6,10.52,26.13,13.47,30,8a6,6,0,0,0,0-6c-2.69-4.82-4.33-3.54-6.5-7.5-2.34-4.27-2.39-5.18-5-11C62.16,1712.41,60.37,1707.53,60.37,1704.1Z"/><path class="cls-1" d="M115.37,1632.1c-1.7,13.83-2.6,21.21,0,31s7.72,16.16,18,29c2.51,3.14,6.6,8,9,7,.8-.33,1.21-1.56,2-4,1.49-4.67,2.53-7.9,1-10-1-1.42-2.42-1.19-4-2-4.6-2.37-4.22-10.22-5-16-1.62-12-7.59-10.62-13-27-3.79-11.45-3.48-20-5-20S115.77,1628.81,115.37,1632.1Z"/><path class="cls-1" d="M405.37,1840.1c-8.61-2.43-20.69-5.84-32-16-17.24-15.47-10.31-26.49-28-41-10.46-8.58-24.79-20.33-38-23-1.24-.25-6.29-1.2-7-4-.32-1.23.25-2.65,6-10,2.39-3.06,3.59-4.59,4-5,5.73-5.74,17.45-.81,28,0,16.15,1.23,17.38-8.16,41-13,5.17-1.06,15.85-1.06,37-1,37.14.09,41.28,1.43,44,5,7.68,10.09-3.15,28.6,5,34,1.44,1,3.32,1,7,1,12.95.11,17.79-4.58,25-5,13.47-.8,15.26,14.49,28,15,14.8.59,17.85-19.86,39-24,12.29-2.41,16.65,3.45,24-1,13.34-8.08,8.57-33.17,14-34s6.43,23.77,25,41c11.55,10.72,17.9,7.5,40,21,19.74,12.05,30.72,18.76,31,26C699.66,1839.92,466.13,1857.26,405.37,1840.1Z"/><path class="cls-2" d="M662.37,1811.1c1.61-4.1,2.88-13.2-1-21-2.65-5.33-8.6-8.63-20-16-20.4-13.19-24.34-16.33-28-21-7-8.87-6.42-19.2-9-19-1.5.11-2.07,3.44-4,10-4,13.4-5.92,20.09-9,22-7.82,4.83-17.64-9.15-31-5-3.11,1-6.79,4.32-14,11-12.23,11.31-12.22,16.77-17,17-5.1.24-6.45-5.59-22-17-5.46-4-7.19-4.68-9-5-7.81-1.38-11.56,4.8-20,7-10.69,2.78-25-1.87-29-10-5.31-10.76,9.54-23.24,5-29-5.23-6.63-24.73,10-53,6-16-2.29-18-8.83-27-6-14.35,4.52-15.48,23.26-33,28-6.53,1.76-11.78.63-12,2-.44,2.69,20.26,3.93,36,16,16.08,12.34,14.34,26.3,23,38,18.5,25,61.84,9,147,6C605.39,1822.62,654.68,1830.64,662.37,1811.1Z"/><path class="cls-1" d="M640.37,1811.1c4.25-5.54,4.13-14.84,1-21-6-11.7-21.31-9.15-30-24-1.65-2.82-2.91-6-5-6-4.26,0-3.77,13.28-11,17-9.08,4.66-19.17-11.42-31-8-10.12,2.92-7.57,16.06-21,24-8.58,5.07-20.19,6-29,2-10.32-4.65-8.52-12.23-17-17-18.28-10.28-44,15.22-54,6-5.53-5.08-4.46-19-4-25,.63-8.22,2.59-10.07,1-12-5.62-6.83-30.79,15.24-52,6-5-2.17-8-5.29-12-4-6.24,2-10.1,13-9,22,2,16.24,20,26.58,40,38,12.45,7.12,19.64,11.24,30,14,25.85,6.89,36.27-4,76-9,38.56-4.83,76-1,76-1C614.91,1815.71,633,1820.72,640.37,1811.1Z"/><path class="cls-1" d="M627.37,1807.1c2.44-3.56,1.18-8.44,0-13-1.91-7.34-7.65-17.65-15-18-5.67-.27-6.2,5.67-13,7-10.34,2-15.14-10.52-26-9-6.84,1-11.75,6.88-16,12s-6.68,8-6,11c1.06,4.65,9.08,6.08,37,10C616.55,1811.05,624.13,1811.8,627.37,1807.1Z"/><path class="cls-1" d="M-32.63,1685.1c2.08-13.8,9.33-24.92,6-41-.68-3.24-2.64-10.85,1-14,2.15-1.87,4.94-1,8-1,13.64.15,18.05-15.67,29-16,8.09-.25,7.9,8.32,21,14,12.64,5.48,26.13,3.28,34,2,14.61-2.39,19.13-7.14,24-4s3.7,10.42,5,25c1.93,21.68,2.92,32.87,10,42,10.26,13.24,24.55,10.87,31,25,1.35,3,2.67,7.35,7,12,5.17,5.57,9.63,6.13,10,9,.55,4.34-11,4.16-18,13-3,3.72-2.08,5.1-7,22-3.26,11.18-4.93,16.82-7,19-2.66,2.79-7.52,6-31,6-14.85,0-23,0-33-2-44.68-9.18-70.54-48.7-72-51C-21.07,1734.94-36.49,1710.64-32.63,1685.1Z"/><path class="cls-1" d="M147.37,1718.1c1.31-4.43,15.08-4.45,24-3,5.83.94,22,4.53,33,19,3,3.9,10,13.13,7,18-3.89,6.34-19.08-4-35,3-3.06,1.34-5.73,3.13-25,28-14.53,18.74-15.78,21.3-21,24-16.61,8.58-37.15-.07-37-2s23.34,3.9,35-9c3.68-4.07,5.45-9.38,9-20,4.53-13.56,2.6-15.16,6-20,7.94-11.33,22.64-8.59,24-15C169.11,1732.84,145.56,1724.19,147.37,1718.1Z"/><path class="cls-1" d="M174.37,1740.1c.44-6.86-9.35-11-8-14,1.19-2.63,10-1.8,17,1,8.58,3.43,17.46,11,16,15-1.18,3.18-7.85.84-21,5-7.72,2.44-13.52,5.81-14,5C163.76,1751.07,173.93,1746.91,174.37,1740.1Z"/><path class="cls-1" d="M222.37,1712.1c-.27,13.09,7.47,22.25,9,24,10.06,11.47,24.15,12.61,29,13,13.27,1.07,25.19-3.48,25-5-.12-1-6.94-.44-24-2-9.53-.88-12.58-1.51-15-4-4-4.08-.11-8.55-4-15-3-4.93-5.79-3.65-11-10-4.57-5.57-5.46-10.28-7-10S222.44,1708.57,222.37,1712.1Z"/><path class="cls-1" d="M144.87,1818.6c-5.61-8.85,15.64-31,28-41,6.45-5.23,19.52-14.49,34-13,5.92.6,6.8,2.47,7,3,1.36,3.74-7.32,8.16-15,17-11.44,13.15-7.29,20.68-16,29C171.42,1824.53,149.37,1825.71,144.87,1818.6Z"/><path class="cls-1" d="M441.87,1807.6c1.34-2.6-13-7.54-16-21-2.76-12.43,6.39-22.09,3-25-3.94-3.38-14.95,10.73-32,10-11.05-.47-17.55-6.87-19-5-1.89,2.42,7.84,14.66,20,24C417.45,1805.64,440.22,1810.78,441.87,1807.6Z"/><path class="cls-1" d="M409.87,1792.6c-2.15-1.19-9.67-5.34-9-9,.61-3.39,7.46-2.16,15-9,2.05-1.86,3.08-3.36,4-3,1.66.64,2.06,7-1,11-2.47,3.22-5.69,3-6,5-.54,3.47,8.45,6.92,8,8C420.53,1796.4,415.11,1795.49,409.87,1792.6Z"/><path class="cls-1" d="M-67.63,1589.1c17.44,11.08,46.79-31.91,88-22,24.58,5.91,23.72,23.51,45,26,36.6,4.27,53.2-46.21,93-43,14.83,1.19,31.18,9.71,39,23,14.08,24-11.18,43.67,1,71,11,24.59,47.85,45.5,71,39,3.91-1.1,13-4.55,16-1,3.39,4-3.54,14.11-1,16s9-7.84,16-7c9.33,1.1,8.3,19.36,18,26,15.05,10.31,40.31-18.1,85-32,31.75-9.88,77.49-13.72,88,4s-18.24,51.17-9,59c2.74,2.32,7.82-3.91,18-3,8,.71,9.06,4.67,15,6,17.3,3.88,28.33-25.24,51-24,9.1.5,12.66,5.48,16,3,9.32-6.95-15.9-47.95-8-54,5.13-3.94,20,10.18,35,20,19.11,12.48,35.45.76,52.09,13.6,6.81,5.27,4.86,6.69,10.41,9.9,18.24,10.54,34.87-7.47,50.5,1.5,11.14,6.39,7.67,18.4,21.5,24.5,8.32,3.67,14.31,1.4,17.52,6.06,4.11,5.95-2.71,13.86-3.52,21.94-1.79,17.78,25.44,36.72,71.5,59.5,56.09,27.74,84.13,41.61,92,34,21.73-21-57.15-139.81-84.8-131.25-4.56,1.41-12.53,7.76-16.7,4.75-3.79-2.73-.09-10-4-15-4.5-5.77-15.22-3.64-23-3-24.37,2-25.28-10.09-51.5-11.5-29.7-1.6-44,13.09-59.5,2.5-5.2-3.56-4.24-5.68-10.88-10.41-13.54-9.67-27.36-7.88-36.62-9.09-35.39-4.62-50.29-59.64-61-55-9.44,4.09,4.18,35-12,64-2.15,3.84-15.94,31.23-38,32-1.37.05-14.94.35-20-8-7.56-12.45,12.92-29.15,9-42-5.54-18.14-52-28.06-93-17-46.9,12.66-66.81,47.5-86,38-15.75-7.8-18.57-39.26-26-38-3.76.64-4.52,8.93-8,9-3.86.07-2.47-12.66-9-17-8.66-5.76-21,9.47-39,9-13.43-.36-26.64-9.35-33-19-17.68-26.81,18-57.92,4-85-15.73-30.46-79.13-26.5-86-26-46.44,3.37-51.42,26.14-85,25-56.16-1.92-79-66.85-106-57C-78.92,1516-85.68,1577.63-67.63,1589.1Z"/><path class="cls-1" d="M-39.13,1473.6c-3,23.52,40.4,59.58,83,61,39,1.29,45-27.95,93-33,27.85-2.94,76.13.82,91,28,11.26,20.59,7.65,62.38,5,93-.72,8.3-1.64,15.71,3,20,14.59,13.49,66-20.8,72-12,2.1,3.07-3.7,7.91-1,14,2.81,6.36,11,5.28,20,11,12.37,7.88,9.79,18.2,17,22,16.13,8.49,37.62-38.72,80-45,5.81-.86,2,.53,74,18,19,4.6,30.08,7.14,36,17,9.47,15.78-2.77,36.37,1,38,4.09,1.77,24.48-19.85,28-49,3.23-26.84-9.57-45.71-4-49,1.36-.81,5.34-1.57,32,24,30.65,29.4,29,33.83,40,38,21.35,8.06,34.65-5.87,53,6,10.26,6.63,8,12.25,17,16,16.46,6.89,26.25-11.16,52-11,21,.13,23,12.26,44,10,15.08-1.63,23.78-9,30-4,6.41,5.12,2,16.79,9,21,4.52,2.73,10,0,14-1,21.54-5.4,50.13,27.23,74,55,22.53,26.21,24.71,34,39,40,22.81,9.53,49.24,2.94,50-3,1-8.11-46.85-5.66-81-42-18.83-20-15.16-32.36-35-44-21.77-12.78-36.2-3.82-53-19-15.75-14.23-12.37-30.52-24-33-14.92-3.19-31.29,21.28-43,15-3.14-1.69-4.76-4.95-10-6-5.52-1.11-10.23,1.19-12,2-12.82,5.85-34.31,7.67-47,5-16.54-3.48-14.26-13.75-31-18-19.75-5-26.75,8.28-42,4-19.63-5.51-16-29.77-41-52-18.73-16.64-47.11-26.45-56-18-12.23,11.62,17.89,52.56,7,62-8.73,7.56-30.25-16.85-76-29-20-5.33-61.63-16.38-87,4-15,12-15,27.56-28,29-14.28,1.58-32.25-15.15-31-26,.33-2.85,1.91-4.72,1-8-1.36-4.87-6.15-5.42-11-11-5-5.74-3.32-9.06-6-11-10.8-7.82-49.76,37.08-60,30-3.51-2.43-3.43-10.8-1-16,2.87-6.17,8.25-6.23,10-11,2.52-6.88-6-14-10-21-12.17-21,12.83-46.2,9-63-7.58-33.21-98.39-19.91-134-32-2.55-.87-10.88-3.91-16,0-4.15,3.17-2.25,7.89-5,13-5.21,9.64-20.07,7.73-45,13-23.72,5-21.43,9.1-29,8-30.35-4.42-39.26-66.08-55-64C-34.31,1460.28-38.36,1467.61-39.13,1473.6Z"/><path class="cls-1" d="M770.87,1817.6c3.59-6.93-31.14-25.91-27-44,1.77-7.75,9.55-10.41,8-15-2.32-6.86-20.12-2.3-30-13-5.34-5.77-1.26-10.54-6-15-7.6-7.15-18,2.76-35-2-11.28-3.17-11.42-8.88-26-13-7.19-2-18.77-3.93-20-1-1.78,4.21,20.78,11.41,34,29,2,2.63,5.18,7.41,11,9,5.54,1.51,9-1.1,12,1,4,2.79,2,10.34,2,16,.18,21.73,31.25,40.57,54,47C751,1817.47,768.46,1822.23,770.87,1817.6Z"/><path class="cls-2" d="M743.87,1804.6c2.57-3.6-16.06-15.59-13-30,1.25-5.93,5.19-7.64,4-11-2.59-7.26-22-2.15-28-12-3.34-5.49-.07-11.63-3-13-3.21-1.5-11.16,3.94-11,9,.28,8.93,25.63,9.7,28,22,1.45,7.53-7.32,11-6,19C716.94,1801.09,741.19,1808.34,743.87,1804.6Z"/><path class="cls-2" d="M809.87,1812.6c-11.28-6.71-27.33-16.26-31-33-3.4-15.49,6.46-25,0-35-8.18-12.61-31.49-8.94-32-15-.26-3,5.22-7.13,11-8,15.35-2.33,25,19.43,38,16,6-1.57,7.94-7.18,11-6,5.3,2.05-.7,19,6,24s17.91-7.77,31-8c28-.5,62.81,56.51,49,76C881.18,1840.09,835.89,1828.08,809.87,1812.6Z"/><path class="cls-1" d="M872.87,1810.6c6.3-9.19-4.37-33.41-20-39-16.93-6-33.06,12.09-49,3-8.43-4.81-11.29-14.09-14-13-2.91,1.16-2.24,12.89,1,21C802.85,1812.64,862.87,1825.17,872.87,1810.6Z"/><path class="cls-2" d="M948.87,1821.6c3.23-4.85-14.75-18.95-38-46-28.14-32.73-28.7-43.32-44-47-14.34-3.45-27.11,2.65-37-7-5.69-5.54-4.17-10.18-10-14-9-5.87-17.93,1.55-33,2-21.62.64-23.39-14-44-15-24.45-1.18-31.86,19-49,14-16.35-4.72-14.09-24.31-32-30-16.35-5.19-24.85,9-40,3-9.38-3.74-9.47-10.52-25-31-10.34-13.64-24.66-32.52-31-30-8.7,3.45,11.08,41.76-7,72-12.91,21.58-39.62,29.85-43,26-3-3.41,12.67-15.77,10-33-1.47-9.45-7.72-15.71-10-18-8.53-8.55-19.4-11.37-61-14-26.42-1.67-39.64-2.51-44-1-23.76,8.18-23.86,27.3-50,35-1.89.55-25.52,7.25-34-3-5.22-6.3-.6-14-7-20s-15.25-1.66-20-8c-4.07-5.42.25-11.41-3-14-5-4-16.13,9.46-36,13-6.27,1.12-20.67,3.68-30-5-5-4.63-6.94-11.48-7-28-.15-39.88,11-48.5,5-66-7.18-20.76-30.29-30-33-31-21.25-8.12-28.64,4.93-57-3-5-1.4-13.84-4.34-21,0-5.19,3.14-6.79,8.47-8,11-7.36,15.37-43.58,18.15-66,14-60.68-11.24-77.61-83.86-101-77-25.2,7.38-33.5,99.79-27,119,.41,1.21,2.93,8.19,0,11s-8.87-1.44-14,1c-5.74,2.72-6.4,11.91-7,16-4.08,27.56-36.25,29.61-42,58-2.56,12.61,3.15,15.34,0,38-1.54,11-3.61,15.55-5,22-5.21,24.12,6.47,40.76,16,70,11.38,34.94,3.89,39.36,12,65,9.27,29.3,26.21,46.14,64,82,75.34,71.5,113.35,107.3,130,110,20.4,3.3,54.93-7.47,124-29,47.73-14.89,69.23-25.88,97-17,9.06,2.9,22,8.93,36,4,14.68-5.16,18.35-18.3,26-27,24.83-28.29,74.41,8.59,136-3,69-13,67.62-70.8,139-77,27.17-2.36,56,3.53,70-15,10.25-13.53,8.64-34.78,24-41,8.31-3.37,15.23.24,18-4,5.28-8.09-15.58-27.87-12-32,4.26-4.93,34.9,22.06,53,12,4.79-2.67,5.2-6,10-7,10.39-2.21,17.35,11.44,30,21,30.65,23.15,75,7.38,82,26,1.47,3.94,1.3,9.52,5,11s8.23-2.66,13-6c17.84-12.51,31.12-7,34-14,5-12.28-32.93-36.45-29-43C928.45,1817.29,945.89,1826.07,948.87,1821.6Z"/></svg>